# Blender 4.2.1 LTS
# www.blender.org
mtllib Ice Dagger.mtl
o Cube
v 0.292729 0.867212 -3.293411
v 0.292729 -0.867212 -3.293411
v 0.005636 0.016696 1.000000
v 0.005636 -0.016696 1.000000
v -0.292729 0.867212 -3.293411
v -0.292729 -0.867212 -3.293411
v -0.005636 0.016696 1.000000
v -0.005636 -0.016696 1.000000
v 0.292729 0.867212 -3.293411
v 0.292729 -0.867212 -3.293411
v -0.292729 0.867212 -3.293411
v -0.292729 -0.867212 -3.293411
v 0.154116 -0.456568 -4.824847
v -0.154116 -0.456568 -4.824847
v 0.154116 0.456568 -4.824847
v -0.154116 0.456568 -4.824847
v 0.148512 -0.452713 -4.827064
v -0.148512 -0.452713 -4.827064
v 0.161118 0.457175 -4.827064
v -0.161118 0.457175 -4.827064
v -0.203786 -0.187670 -5.524394
v 0.203786 -0.187670 -5.524394
v 0.203786 0.187670 -5.524394
v -0.203786 0.187670 -5.524394
v -1.538851 -0.423588 -5.289657
v 1.538851 -0.423588 -5.289657
v 1.538851 0.423588 -5.289657
v -1.538851 0.423588 -5.289657
v -0.067449 -0.062115 -6.701673
v 0.067449 -0.062115 -6.701673
v 0.067449 0.062114 -6.701673
v -0.067449 0.062114 -6.701673
v 0.498320 0.000000 -4.691080
v -0.498320 0.000000 -4.691080
v 2.443578 0.000000 -5.425642
v -2.443578 0.000000 -5.425642
v 0.296801 -0.000000 -5.524394
v -0.296801 -0.000000 -5.524394
v 0.296801 -0.000000 -6.701673
v -0.296801 -0.000000 -6.701673
v 0.867212 0.000000 -3.293411
v -0.016696 0.000000 1.000000
v 0.016696 0.000000 1.000000
v -0.867212 0.000000 -3.293411
v 0.867212 0.000000 -3.293411
v -0.867212 0.000000 -3.293411
v 0.456568 0.000000 -4.824847
v -0.456568 0.000000 -4.824847
vn -0.0000 0.9809 0.1943
vn -0.0000 -0.0000 1.0000
vn -0.8225 0.5449 0.1629
vn -0.0000 -0.9809 0.1943
vn 0.8225 0.5449 0.1629
vn -0.8136 0.5390 -0.2182
vn -0.0000 -0.9659 -0.2590
vn -0.0000 0.9659 -0.2590
vn 0.8136 -0.5390 -0.2182
vn -0.6107 0.7881 -0.0774
vn -0.0000 -0.9980 -0.0628
vn -0.0000 0.9974 -0.0724
vn 0.3069 -0.4393 0.8443
vn -0.3090 0.4357 0.8454
vn -0.0000 -0.7053 -0.7089
vn 0.0686 0.3221 -0.9442
vn -0.0686 -0.3221 -0.9442
vn -0.0000 0.7053 -0.7089
vn -0.0000 -0.0000 -1.0000
vn -0.0000 -0.9944 -0.1060
vn -0.0000 0.9944 -0.1060
vn 0.6107 -0.7881 -0.0774
vn 0.6107 0.7881 -0.0774
vn -0.0686 0.3221 -0.9442
vn 0.0686 -0.3221 -0.9442
vn -0.3069 -0.4393 0.8443
vn 0.3090 0.4357 0.8454
vn -0.6107 -0.7881 -0.0774
vn 0.8225 -0.5449 0.1629
vn -0.8225 -0.5449 0.1629
vn 0.8136 0.5390 -0.2182
vn -0.8136 -0.5390 -0.2182
vt 0.062026 0.461413
vt 0.000353 0.461413
vt 0.030596 0.000353
vt 0.031783 0.000353
vt 0.527401 0.462222
vt 0.525459 0.463044
vt 0.524469 0.462389
vt 0.524469 0.460279
vt 0.174590 0.000353
vt 0.176699 0.000353
vt 0.234689 0.458750
vt 0.125110 0.458750
vt 0.124404 0.461413
vt 0.062732 0.461413
vt 0.092974 0.000353
vt 0.094161 0.000353
vt 0.344974 0.458750
vt 0.235395 0.458750
vt 0.293385 0.000353
vt 0.295495 0.000353
vt 0.876726 0.399065
vt 0.767147 0.399065
vt 0.795146 0.233761
vt 0.852837 0.233761
vt 0.861834 0.702314
vt 0.923507 0.702314
vt 0.908905 0.869336
vt 0.876436 0.869336
vt 0.799456 0.702314
vt 0.861128 0.702314
vt 0.846527 0.869336
vt 0.814057 0.869336
vt 0.000353 0.628129
vt 0.109932 0.628129
vt 0.081934 0.793433
vt 0.024243 0.793433
vt 0.362868 0.682613
vt 0.383867 0.689388
vt 0.348110 0.809731
vt 0.324790 0.800638
vt 0.654969 0.863892
vt 0.633183 0.841434
vt 0.566250 0.702314
vt 0.791993 0.935017
vt 0.910026 0.070502
vt 0.933661 0.094866
vt 0.999647 0.233055
vt 0.773904 0.000353
vt 0.569134 0.255510
vt 0.566250 0.193631
vt 0.702851 0.265566
vt 0.766441 0.350628
vt 0.522097 0.554574
vt 0.523763 0.616084
vt 0.388380 0.544518
vt 0.324790 0.459456
vt 0.689337 0.778847
vt 0.719232 0.809663
vt 0.286005 0.682613
vt 0.265006 0.689388
vt 0.260493 0.544518
vt 0.324084 0.459456
vt 0.728362 0.574491
vt 0.707364 0.581265
vt 0.702850 0.436395
vt 0.766441 0.351334
vt 0.876560 0.156523
vt 0.846665 0.125707
vt 0.117181 0.524649
vt 0.110638 0.500489
vt 0.110638 0.486279
vt 0.117181 0.462119
vt 0.788855 0.702314
vt 0.798750 0.712514
vt 0.777042 0.233055
vt 0.767147 0.222856
vt 0.728362 0.127471
vt 0.707364 0.120696
vt 0.743121 0.000353
vt 0.766441 0.009446
vt 0.324084 0.800638
vt 0.300763 0.809731
vt 0.123724 0.500489
vt 0.123724 0.486279
vt 0.566250 0.508331
vt 0.569134 0.446452
vt 0.125110 0.616084
vt 0.126776 0.554574
vt 0.766441 0.692515
vt 0.743121 0.701609
vt 0.565544 0.458750
vt 0.455965 0.458750
vt 0.505445 0.000353
vt 0.507554 0.000353
vt 0.403670 0.000353
vt 0.405780 0.000353
vt 0.455259 0.458750
vt 0.345680 0.458750
vt 0.527401 0.460112
vt 0.526411 0.459456
vt 0.000353 0.462119
vt 0.109932 0.462119
vt 0.086042 0.627423
vt 0.028351 0.627423
vt 0.767147 0.399771
vt 0.876726 0.399771
vt 0.852837 0.565076
vt 0.795146 0.565076
s 0
usemtl Material
f 1/1/1 5/2/1 7/3/1 3/4/1
f 43/5/2 3/6/2 7/7/2 42/8/2
f 42/9/3 7/10/3 5/11/3 44/12/3
f 6/13/4 2/14/4 4/15/4 8/16/4
f 41/17/5 1/18/5 3/19/5 43/20/5
f 46/21/6 11/22/6 16/23/6 48/24/6
f 10/25/7 12/26/7 14/27/7 13/28/7
f 11/29/8 9/30/8 15/31/8 16/32/8
f 45/33/9 10/34/9 13/35/9 47/36/9
f 38/37/10 24/38/10 32/39/10 40/40/10
f 17/41/11 18/42/11 25/43/11 26/44/11
f 20/45/12 19/46/12 27/47/12 28/48/12
f 33/49/13 17/50/13 26/51/13 35/52/13
f 34/53/14 20/54/14 28/55/14 36/56/14
f 21/57/15 22/58/15 26/44/15 25/43/15
f 37/59/16 23/60/16 27/61/16 35/62/16
f 38/63/17 21/64/17 25/65/17 36/66/17
f 23/67/18 24/68/18 28/48/18 27/47/18
f 40/69/19 32/70/19 31/71/19 39/72/19
f 22/58/20 21/57/20 29/73/20 30/74/20
f 24/68/21 23/67/21 31/75/21 32/76/21
f 37/77/22 22/78/22 30/79/22 39/80/22
f 23/60/23 37/59/23 39/81/23 31/82/23
f 29/83/19 40/69/19 39/72/19 30/84/19
f 24/38/24 38/37/24 36/56/24 28/55/24
f 22/78/25 37/77/25 35/52/25 26/51/25
f 18/85/26 34/86/26 36/66/26 25/65/26
f 19/87/27 33/88/27 35/62/27 27/61/27
f 21/64/28 38/63/28 40/89/28 29/90/28
f 2/91/29 41/92/29 43/93/29 4/94/29
f 8/95/30 42/96/30 44/97/30 6/98/30
f 4/99/2 43/5/2 42/8/2 8/100/2
f 9/101/31 45/102/31 47/103/31 15/104/31
f 12/105/32 46/106/32 48/107/32 14/108/32
