# Blender 4.2.1 LTS
# www.blender.org
mtllib Lightning Bolt.mtl
o Cube
v 0.041957 0.403950 0.095866
v 0.043598 0.259473 0.095980
v -0.042290 0.403950 0.095866
v -0.040831 0.259473 0.095980
v -0.034521 0.307555 0.181131
v -0.042172 0.448642 0.180019
v 0.041194 0.448642 0.179805
v 0.042658 0.307555 0.180078
v -0.005027 0.114863 0.980757
v -0.005027 0.124916 0.980757
v 0.005027 0.124916 0.980757
v 0.005027 0.114863 0.980757
v 0.005970 0.429314 -0.955793
v -0.005970 0.429314 -0.955793
v 0.005970 0.441253 -0.955793
v -0.005970 0.441253 -0.955793
v 0.085720 0.295104 0.052374
v -0.085720 0.295104 0.052374
v -0.079193 0.389394 0.224452
v 0.083990 0.389394 0.223164
v -0.005027 0.119890 0.980757
v 0.005027 0.119890 0.980757
v 0.005970 0.435283 -0.955793
v -0.005970 0.435283 -0.955793
vn -0.0000 -0.9872 -0.1594
vn 0.0009 0.9271 0.3748
vn -0.0000 -0.0000 1.0000
vn -0.9006 -0.4294 -0.0676
vn -0.0028 -0.9722 -0.2341
vn 0.6866 0.6612 0.3024
vn -0.0000 -0.0000 -1.0000
vn -0.0000 0.9994 0.0354
vn 0.6105 -0.7773 -0.1518
vn -0.9324 0.3608 -0.0215
vn -0.0006 0.8829 -0.4695
vn 0.7745 -0.5488 0.3147
vn -0.7450 -0.5672 0.3511
vn 0.0032 -0.8695 0.4939
vn -0.8832 0.4215 -0.2057
vn 0.8642 0.4452 -0.2344
vn -0.5882 -0.7943 -0.1523
vn 0.9315 0.3630 -0.0211
vn 0.9116 -0.4076 -0.0527
vn -0.7299 0.6197 0.2883
vt 0.084299 0.530227
vt 0.042362 0.528746
vt 0.078368 0.000164
vt 0.084299 0.000373
vt 0.000164 0.570293
vt 0.041596 0.570719
vt 0.019742 0.999836
vt 0.014746 0.999797
vt 0.048330 0.989178
vt 0.048238 0.991675
vt 0.043245 0.991491
vt 0.043337 0.988995
vt 0.358437 0.386777
vt 0.310575 0.404671
vt 0.249652 0.000164
vt 0.252141 0.000380
vt 0.043781 0.577429
vt 0.082133 0.578328
vt 0.048421 0.986681
vt 0.043428 0.986498
vt 0.131369 0.589348
vt 0.166027 0.565208
vt 0.087063 0.987642
vt 0.084626 0.988195
vt 0.468928 0.003131
vt 0.468928 0.000164
vt 0.474862 0.000164
vt 0.474862 0.003131
vt 0.042035 0.523363
vt 0.000164 0.523027
vt 0.022243 0.000164
vt 0.028177 0.000211
vt 0.421956 0.472344
vt 0.397854 0.447032
vt 0.358765 0.975442
vt 0.361635 0.976196
vt 0.166355 0.505929
vt 0.225998 0.523325
vt 0.212490 0.000164
vt 0.209527 0.000320
vt 0.468600 0.387332
vt 0.421481 0.405077
vt 0.314148 0.473725
vt 0.288946 0.448309
vt 0.216645 0.589549
vt 0.249324 0.564540
vt 0.084626 0.504391
vt 0.143806 0.523491
vt 0.252520 0.977418
vt 0.249652 0.976657
vt 0.142346 0.000234
vt 0.145312 0.000164
vt 0.468928 0.006098
vt 0.474862 0.006098
vt 0.361255 0.000369
vt 0.358765 0.000164
vt 0.166355 0.987132
vt 0.168795 0.986599
s 0
usemtl Material
f 2/1/1 4/2/1 14/3/1 13/4/1
f 7/5/2 6/6/2 10/7/2 11/8/2
f 22/9/3 11/10/3 10/11/3 21/12/3
f 19/13/4 5/14/4 9/15/4 21/16/4
f 5/17/5 8/18/5 12/19/5 9/20/5
f 20/21/6 7/22/6 11/23/6 22/24/6
f 24/25/7 16/26/7 15/27/7 23/28/7
f 3/29/8 1/30/8 15/31/8 16/32/8
f 17/33/9 2/34/9 13/35/9 23/36/9
f 18/37/10 3/38/10 16/39/10 24/40/10
f 6/6/11 7/5/11 1/30/11 3/29/11
f 20/41/12 8/42/12 2/34/12 17/33/12
f 18/43/13 4/44/13 5/14/13 19/13/13
f 8/18/14 5/17/14 4/2/14 2/1/14
f 3/38/15 18/37/15 19/45/15 6/46/15
f 7/22/16 20/21/16 17/47/16 1/48/16
f 4/44/17 18/43/17 24/49/17 14/50/17
f 1/48/18 17/47/18 23/51/18 15/52/18
f 14/53/7 24/25/7 23/28/7 13/54/7
f 8/42/19 20/41/19 22/55/19 12/56/19
f 6/46/20 19/45/20 21/57/20 10/58/20
f 12/19/3 22/9/3 21/12/3 9/20/3
